<svg width="24" height="24" viewBox="0 0 24 24" fill="none" xmlns="http://www.w3.org/2000/svg">
<path d="M19.25 16.45L17.75 14.9C18.4167 14.7167 18.9583 14.3625 19.375 13.8375C19.7917 13.3125 20 12.7 20 12C20 11.1667 19.7083 10.4583 19.125 9.87499C18.5417 9.29166 17.8333 8.99999 17 8.99999H13V6.99999H17C18.3833 6.99999 19.5625 7.48749 20.5375 8.46249C21.5125 9.43749 22 10.6167 22 12C22 12.95 21.7542 13.825 21.2625 14.625C20.7708 15.425 20.1 16.0333 19.25 16.45ZM15.85 13L13.85 11H16V13H15.85ZM19.8 22.6L1.39999 4.19999L2.79999 2.79999L21.2 21.2L19.8 22.6ZM11 17H6.99999C5.61666 17 4.43749 16.5125 3.46249 15.5375C2.48749 14.5625 1.99999 13.3833 1.99999 12C1.99999 10.85 2.34999 9.82499 3.04999 8.92499C3.74999 8.02499 4.64999 7.43332 5.74999 7.14999L7.59999 8.99999H6.99999C6.16666 8.99999 5.45833 9.29166 4.87499 9.87499C4.29166 10.4583 3.99999 11.1667 3.99999 12C3.99999 12.8333 4.29166 13.5417 4.87499 14.125C5.45833 14.7083 6.16666 15 6.99999 15H11V17ZM7.99999 13V11H9.62499L11.6 13H7.99999Z" fill="#1D1B20"/>
</svg>
